HIERARCHY
ROOT hip
{
  OFFSET 0 0 0
  CHANNELS 6 Xposition Yposition Zposition Zrotation Yrotation Xrotation
  JOINT abdomen
  {
    OFFSET 0 20.6881 -0.73152
    CHANNELS 3 Zrotation Xrotation Yrotation
    JOINT chest
    {
      OFFSET 0 11.7043 -0.48768
      CHANNELS 3 Zrotation Xrotation Yrotation
      JOINT neck
      {
        OFFSET 0 22.1894 -2.19456
        CHANNELS 3 Zrotation Xrotation Yrotation
        JOINT head
        {
          OFFSET -0.24384 7.07133 1.2192
          CHANNELS 3 Zrotation Xrotation Yrotation
          JOINT leftEye
          {
            OFFSET 4.14528 8.04674 8.04672
            CHANNELS 3 Zrotation Xrotation Yrotation
            End Site
            {
              OFFSET 1 0 0
            }
          }
          JOINT rightEye
          {
            OFFSET -3.6576 8.04674 8.04672
            CHANNELS 3 Zrotation Xrotation Yrotation
            End Site
            {
              OFFSET 1 0 0
            }
          }
        }
      }
      JOINT rCollar
      {
        OFFSET -2.68224 19.2634 -4.8768
        CHANNELS 3 Zrotation Xrotation Yrotation
        JOINT rShldr
        {
          OFFSET -8.77824 -1.95073 1.46304
          CHANNELS 3 Zrotation Xrotation Yrotation
          JOINT rForeArm
          {
            OFFSET -28.1742 -1.7115 0.48768
            CHANNELS 3 Zrotation Xrotation Yrotation
            JOINT rHand
            {
              OFFSET -22.5879 0.773209 7.07136
              CHANNELS 3 Zrotation Xrotation Yrotation
              JOINT rThumb1
              {
                OFFSET -1.2192 -0.487915 3.41376
                CHANNELS 3 Zrotation Xrotation Yrotation
                JOINT rThumb2
                {
                  OFFSET -3.37035 -0.52449 3.41376
                  CHANNELS 3 Zrotation Xrotation Yrotation
                  End Site
                  {
                    OFFSET -1.78271 -1.18214 1.43049
                  }
                }
              }
              JOINT rIndex1
              {
                OFFSET -7.75947 0.938293 5.60832
                CHANNELS 3 Zrotation Xrotation Yrotation
                JOINT rIndex2
                {
                  OFFSET -2.54057 -0.884171 1.56538
                  CHANNELS 3 Zrotation Xrotation Yrotation
                  End Site
                  {
                    OFFSET -1.62519 -0.234802 1.16502
                  }
                }
              }
              JOINT rMid1
              {
                OFFSET -8.24714 1.18213 3.41376
                CHANNELS 3 Zrotation Xrotation Yrotation
                JOINT rMid2
                {
                  OFFSET -3.10165 -0.590103 1.0647
                  CHANNELS 3 Zrotation Xrotation Yrotation
                  End Site
                  {
                    OFFSET -2.48547 -0.328903 0.83742
                  }
                }
              }
              JOINT rRing1
              {
                OFFSET -8.82822 0.546677 1.51678
                CHANNELS 3 Zrotation Xrotation Yrotation
                JOINT rRing2
                {
                  OFFSET -2.60934 -0.819778 -0.0198488
                  CHANNELS 3 Zrotation Xrotation Yrotation
                  End Site
                  {
                    OFFSET -2.33842 -0.294052 0.168128
                  }
                }
              }
              JOINT rPinky1
              {
                OFFSET -8.27202 -0.0477905 -0.4584
                CHANNELS 3 Zrotation Xrotation Yrotation
                JOINT rPinky2
                {
                  OFFSET -1.82734 -0.647385 -0.700984
                  CHANNELS 3 Zrotation Xrotation Yrotation
                  End Site
                  {
                    OFFSET -1.69225 -0.51767 -0.607171
                  }
                }
              }
            }
          }
        }
      }
      JOINT lCollar
      {
        OFFSET 2.68224 19.2634 -4.8768
        CHANNELS 3 Zrotation Xrotation Yrotation
        JOINT lShldr
        {
          OFFSET 8.77824 -1.95073 1.46304
          CHANNELS 3 Zrotation Xrotation Yrotation
          JOINT lForeArm
          {
            OFFSET 28.1742 -1.7115 0.48768
            CHANNELS 3 Zrotation Xrotation Yrotation
            JOINT lHand
            {
              OFFSET 22.5879 0.773209 7.07136
              CHANNELS 3 Zrotation Xrotation Yrotation
              JOINT lThumb1
              {
                OFFSET 1.2192 -0.487915 3.41376
                CHANNELS 3 Zrotation Xrotation Yrotation
                JOINT lThumb2
                {
                  OFFSET 3.37035 -0.52449 3.41376
                  CHANNELS 3 Zrotation Xrotation Yrotation
                  End Site
                  {
                    OFFSET 1.78271 -1.18214 1.43049
                  }
                }
              }
              JOINT lIndex1
              {
                OFFSET 7.75947 0.938293 5.60832
                CHANNELS 3 Zrotation Xrotation Yrotation
                JOINT lIndex2
                {
                  OFFSET 2.54057 -0.884171 1.56538
                  CHANNELS 3 Zrotation Xrotation Yrotation
                  End Site
                  {
                    OFFSET 1.62519 -0.234802 1.16502
                  }
                }
              }
              JOINT lMid1
              {
                OFFSET 8.24714 1.18213 3.41376
                CHANNELS 3 Zrotation Xrotation Yrotation
                JOINT lMid2
                {
                  OFFSET 3.10165 -0.590103 1.0647
                  CHANNELS 3 Zrotation Xrotation Yrotation
                  End Site
                  {
                    OFFSET 2.48547 -0.328903 0.83742
                  }
                }
              }
              JOINT lRing1
              {
                OFFSET 8.82822 0.546677 1.51678
                CHANNELS 3 Zrotation Xrotation Yrotation
                JOINT lRing2
                {
                  OFFSET 2.60934 -0.819778 -0.0198488
                  CHANNELS 3 Zrotation Xrotation Yrotation
                  End Site
                  {
                    OFFSET 2.33842 -0.294052 0.168128
                  }
                }
              }
              JOINT lPinky1
              {
                OFFSET 8.27202 -0.0477905 -0.4584
                CHANNELS 3 Zrotation Xrotation Yrotation
                JOINT lPinky2
                {
                  OFFSET 1.82734 -0.647385 -0.700984
                  CHANNELS 3 Zrotation Xrotation Yrotation
                  End Site
                  {
                    OFFSET 1.69225 -0.51767 -0.607171
                  }
                }
              }
            }
          }
        }
      }
    }
  }
  JOINT rButtock
  {
    OFFSET -8.77824 4.35084 1.2192
    CHANNELS 3 Zrotation Xrotation Yrotation
    JOINT rThigh
    {
      OFFSET 0 -1.70687 -2.19456
      CHANNELS 3 Zrotation Xrotation Yrotation
      JOINT rShin
      {
        OFFSET 0 -36.8199 0.73152
        CHANNELS 3 Zrotation Xrotation Yrotation
        JOINT rFoot
        {
          OFFSET 0.73152 -45.1104 -5.12064
          CHANNELS 3 Zrotation Xrotation Yrotation
          End Site
          {
            OFFSET -1.1221 -3.69964 12.103
          }
        }
      }
    }
  }
  JOINT lButtock
  {
    OFFSET 8.77824 4.35084 1.2192
    CHANNELS 3 Zrotation Xrotation Yrotation
    JOINT lThigh
    {
      OFFSET 0 -1.70687 -2.19456
      CHANNELS 3 Zrotation Xrotation Yrotation
      JOINT lShin
      {
        OFFSET 0 -36.8199 0.73152
        CHANNELS 3 Zrotation Xrotation Yrotation
        JOINT lFoot
        {
          OFFSET -0.73152 -45.1104 -5.12064
          CHANNELS 3 Zrotation Xrotation Yrotation
          End Site
          {
            OFFSET 1.1221 -3.69964 12.103
          }
        }
      }
    }
  }
}
MOTION
Frames:	5
Frame Time:	0.00833333
40.2599 77.0963 -176.711 0.0 0.0 0.0 -2.86916 0.000464478 -0.0776572 -0.791675 0.0137409 -0.136989 -1.95148e-14 -2.38542e-15 1.78906e-15 -5.94552e-14 -6.36111e-15 5.21965e-15 -0.0 0.0 0.0 -0.0 0.0 0.0 -9.89226e-15 -1.87331e-16 9.93923e-16 -2.03572e-13 -4.24281e-15 1.86858e-14 -3.57241e-12 9.20771e-13 3.94389e-13 -4.07497e-11 -1.755e-12 3.51451e-12 -9.61702e-11 -1.80256e-12 8.47936e-12 -1.66102e-10 -3.11376e-12 1.46409e-11 -9.6168e-11 -1.80178e-12 8.46664e-12 7.73091 5.47488 0.417314 -9.61707e-11 -1.80258e-12 8.47618e-12 2.90554 0.965183 0.102902 -9.61676e-11 -1.80238e-12 8.48015e-12 10.2786 0.731801 0.0259123 -9.61716e-11 -1.80258e-12 8.49208e-12 2.22167 -0.733487 -0.20892 -9.88744e-15 -1.90631e-16 5.96354e-16 -2.08829e-13 -4.13099e-15 1.70955e-14 -3.55556e-12 -1.19072e-12 3.56222e-13 -4.08123e-11 3.5652e-13 3.55268e-12 -9.62529e-11 -1.80741e-12 8.49526e-12 -1.66222e-10 -3.1233e-12 1.46687e-11 -9.62611e-11 -1.80536e-12 8.50798e-12 -7.73091 5.47488 -0.417314 -9.62521e-11 -1.80725e-12 8.49208e-12 -2.90554 0.965183 -0.102902 -9.62579e-11 -1.80695e-12 8.4889e-12 -10.2786 0.731801 -0.0259123 -9.6242e-11 -1.80496e-12 8.47618e-12 -2.22167 -0.733487 0.20892 -2.03217e-16 0.0 -3.88251e-19 -1.73856 -1.93252 0.0116906 -0.00843467 -2.07868 -0.069178 -0.439166 3.99976 0.129568 2.03217e-16 0.0 3.88251e-19 -2.62634 -8.90858 0.290416 -0.00806154 10.5564 -0.20687 0.504776 -1.65916 -0.0231226
41.0196 75.0274 -176.753 2.5755 2.4934 5.4362 -2.01601 0.133846 -0.147981 -0.170114 -1.37059 -0.100747 -1.06548 1.22824 -0.251232 1.51637 -3.35775 -0.122466 -0.0 0.0 0.0 -0.0 0.0 0.0 2.17287e-14 -6.91788e-14 2.97168e-15 22.4025 -6.22752 -6.92272 -2.29125 -0.82515 3.77898 0.244047 10.9981 1.44489 -7.15254e-10 -2.05783e-10 4.73624e-10 -1.21863e-09 -3.47577e-10 8.377e-10 -7.15253e-10 -2.05783e-10 4.73612e-10 7.73091 5.47488 0.417314 -7.15256e-10 -2.05783e-10 4.73622e-10 2.90554 0.965183 0.102902 -7.15254e-10 -2.05783e-10 4.73625e-10 10.2786 0.731801 0.0259123 -7.15259e-10 -2.05783e-10 4.73637e-10 2.22167 -0.733487 -0.20892 2.17212e-14 -6.91796e-14 2.56945e-15 -20.59 9.37047 -3.78486 8.97225 -5.84255 -11.5787 -0.107209 -7.2746 0.992873 -2.83777e-10 -1.02486e-09 4.57711e-10 -5.00102e-10 -1.80704e-09 7.87347e-10 -2.83784e-10 -1.02485e-09 4.5772e-10 -7.73091 5.47488 -0.417314 -2.83776e-10 -1.02486e-09 4.5771e-10 -2.90554 0.965183 -0.102902 -2.83782e-10 -1.02485e-09 4.57706e-10 -10.2786 0.731801 -0.0259123 -2.83769e-10 -1.02485e-09 4.57695e-10 -2.22167 -0.733487 0.20892 -2.03217e-16 0.0 -3.88251e-19 -0.739676 -13.3402 1.22148 0.0103966 10.1386 0.106997 -0.331543 1.98455 1.86594 2.03217e-16 0.0 3.88251e-19 -2.56567 -7.68588 0.580478 0.0393764 21.1186 -0.348654 0.506054 7.06659 4.74691
40.8588 75.1218 -175.461 2.098 2.2111 5.243 -1.13358 0.270482 -0.238842 0.489905 -2.84321 -0.0672891 -2.18042 2.52253 -0.511977 3.09406 -6.90338 -0.243924 -0.0 0.0 0.0 -0.0 0.0 0.0 5.67098e-14 -1.45731e-13 5.27401e-15 44.4002 -12.5592 -14.5875 -4.59435 -1.685 7.77476 -0.146873 22.6228 3.16379 -1.40111e-09 -4.31395e-10 9.85203e-10 -2.38482e-09 -7.28569e-10 1.74305e-09 -1.40111e-09 -4.31396e-10 9.85192e-10 7.73091 5.47488 0.417314 -1.40112e-09 -4.31394e-10 9.85203e-10 2.90554 0.965183 0.102902 -1.40112e-09 -4.31395e-10 9.85205e-10 10.2786 0.731801 0.0259123 -1.40112e-09 -4.31394e-10 9.85217e-10 2.22167 -0.733487 -0.20892 5.66881e-14 -1.45729e-13 4.86401e-15 -40.9142 19.1228 -8.16699 15.9532 -11.2558 -24.2245 0.0624089 -14.9686 2.09868 -4.94533e-10 -2.16093e-09 9.5358e-10 -8.75138e-10 -3.80999e-09 1.64021e-09 -4.94538e-10 -2.16092e-09 9.53584e-10 -7.73091 5.47488 -0.417314 -4.9453e-10 -2.16093e-09 9.53582e-10 -2.90554 0.965183 -0.102902 -4.94537e-10 -2.16093e-09 9.53577e-10 -10.2786 0.731801 -0.0259123 -4.94527e-10 -2.16093e-09 9.53568e-10 -2.22167 -0.733487 0.20892 -2.03217e-16 0.0 -3.88251e-19 0.861537 -25.435 2.69119 -0.0559658 23.0476 0.31627 -0.0906771 -0.102725 3.68157 2.03217e-16 0.0 3.88251e-19 -2.54633 -6.27287 0.857242 0.15706 32.1153 -0.533491 -1.16961 16.2054 10.2716
40.7193 75.2396 -174.12 1.6436 2.0243 5.0017 -0.30872 0.400605 -0.288635 1.07826 -4.13926 -0.0282506 -3.16406 3.68445 -0.755083 4.50549 -10.0731 -0.37251 -0.0 0.0 0.0 -0.0 0.0 0.0 8.49706e-14 -2.07162e-13 6.92718e-15 62.6196 -17.5693 -21.705 -6.54932 -2.43242 11.3461 -1.19981 32.9021 5.06991 -1.95342e-09 -6.13744e-10 1.40391e-09 -3.32369e-09 -1.0365e-09 2.48382e-09 -1.95342e-09 -6.13746e-10 1.4039e-09 7.73091 5.47488 0.417314 -1.95343e-09 -6.13744e-10 1.40391e-09 2.90554 0.965183 0.102902 -1.95343e-09 -6.13745e-10 1.40391e-09 10.2786 0.731801 0.0259123 -1.95343e-09 -6.13743e-10 1.40393e-09 2.22167 -0.733487 -0.20892 8.49384e-14 -2.07158e-13 6.51563e-15 -57.681 27.5886 -12.6625 20.1267 -14.6545 -35.8907 0.483866 -21.7966 3.18236 -6.58826e-10 -3.07096e-09 1.35614e-09 -1.16786e-09 -5.41488e-09 2.3327e-09 -6.5883e-10 -3.07095e-09 1.35614e-09 -7.73091 5.47488 -0.417314 -6.58823e-10 -3.07095e-09 1.35615e-09 -2.90554 0.965183 -0.102902 -6.5883e-10 -3.07095e-09 1.35614e-09 -10.2786 0.731801 -0.0259123 -6.58823e-10 -3.07095e-09 1.35613e-09 -2.22167 -0.733487 0.20892 -2.03217e-16 0.0 -3.88251e-19 2.99895 -36.0844 4.38456 -0.213497 34.5719 0.551663 0.249595 -2.03388 5.33933 2.03217e-16 0.0 3.88251e-19 -2.48162 -5.24035 1.1568 0.349874 42.2413 -0.768563 -4.13265 23.7941 15.5273
40.6751 75.3627 -172.759 1.5018 2.0068 4.7104 0.371184 0.51445 -0.235748 1.48479 -4.99388 0.0247394 -3.84107 4.51568 -0.952858 5.52677 -12.303 -0.514989 -0.0 0.0 0.0 -0.0 0.0 0.0 9.64306e-14 -2.30791e-13 6.95746e-15 74.8106 -20.417 -26.5022 -7.86143 -2.9396 13.8477 -2.45281 39.9051 6.74966 -2.17185e-09 -6.87938e-10 1.59045e-09 -3.69426e-09 -1.1618e-09 2.81315e-09 -2.17185e-09 -6.8794e-10 1.59044e-09 7.73091 5.47488 0.417314 -2.17185e-09 -6.87937e-10 1.59045e-09 2.90554 0.965183 0.102902 -2.17185e-09 -6.87938e-10 1.59045e-09 10.2786 0.731801 0.0259123 -2.17186e-09 -6.87936e-10 1.59046e-09 2.22167 -0.733487 -0.20892 9.63968e-14 -2.30786e-13 6.55989e-15 -68.6098 33.3505 -16.189 22.0682 -15.8602 -43.9743 0.945342 -26.4853 4.01548 -7.06964e-10 -3.41587e-09 1.52544e-09 -1.2548e-09 -6.02465e-09 2.62429e-09 -7.06967e-10 -3.41586e-09 1.52544e-09 -7.73091 5.47488 -0.417314 -7.06961e-10 -3.41586e-09 1.52544e-09 -2.90554 0.965183 -0.102902 -7.06968e-10 -3.41586e-09 1.52544e-09 -10.2786 0.731801 -0.0259123 -7.06962e-10 -3.41587e-09 1.52543e-09 -2.22167 -0.733487 0.20892 -2.03217e-16 0.0 -3.88251e-19 5.15107 -43.1861 5.94364 -0.402869 42.6354 0.762933 0.599011 -3.58684 6.59745 2.03217e-16 0.0 3.88251e-19 -2.27474 -5.1588 1.51548 0.58791 50.1914 -1.0346 -6.58531 28.3297 18.7365
